<svg width="73" height="32" viewBox="0 0 73 32" fill="none" xmlns="http://www.w3.org/2000/svg">
<g clip-path="url(#clip0_1002_281)">
<path d="M10.5186 20.6147V24.1079L12.4817 21.2098L15.6255 16.569H13.2591H3.68727L8.83397 8.97187L12.4817 3.58692V0.0939941L0 18.5193H11.9379L10.5186 20.6147Z" fill="url(#paint0_linear_1002_281)"/>
<path d="M11.062 12.6684L12.4816 10.573V7.08008L10.5185 9.97789L7.37476 14.6187H9.74086H19.3127L12.6973 24.3845L10.5185 27.6008V31.094L22.9999 12.6684H11.062Z" fill="url(#paint1_linear_1002_281)"/>
</g>
<path d="M34.92 22.594V19.234L41.84 11.274V10.954H35.12V8.59399H44.6V11.954L37.68 19.914V20.234H44.64V22.594H34.92ZM47.1834 22.594L50.8634 8.59399H55.4634L59.1434 22.594H56.4234L55.6634 19.514H50.6634L49.9034 22.594H47.1834ZM51.2834 17.074H55.0434L53.3434 10.254H52.9834L51.2834 17.074ZM62.1192 22.594V8.59399H67.8792C68.7592 8.59399 69.5326 8.77399 70.1992 9.13399C70.8792 9.48066 71.4059 9.97399 71.7792 10.614C72.1659 11.254 72.3592 12.014 72.3592 12.894V13.174C72.3592 14.0407 72.1592 14.8007 71.7592 15.454C71.3726 16.094 70.8392 16.594 70.1592 16.954C69.4926 17.3007 68.7326 17.474 67.8792 17.474H64.7592V22.594H62.1192ZM64.7592 15.074H67.6192C68.2459 15.074 68.7526 14.9007 69.1392 14.554C69.5259 14.2073 69.7192 13.734 69.7192 13.134V12.934C69.7192 12.334 69.5259 11.8607 69.1392 11.514C68.7526 11.1673 68.2459 10.994 67.6192 10.994H64.7592V15.074Z" fill="white"/>
<defs>
<linearGradient id="paint0_linear_1002_281" x1="7.81273" y1="0.0939941" x2="7.81773" y2="27.822" gradientUnits="userSpaceOnUse">
<stop stop-color="#470C03"/>
<stop offset="1" stop-color="#F93D00"/>
</linearGradient>
<linearGradient id="paint1_linear_1002_281" x1="15.1873" y1="7.08008" x2="15.1923" y2="34.8081" gradientUnits="userSpaceOnUse">
<stop stop-color="#470C03"/>
<stop offset="1" stop-color="#F93D00"/>
</linearGradient>
<clipPath id="clip0_1002_281">
<rect width="23" height="31" fill="white" transform="translate(0 0.0939941)"/>
</clipPath>
</defs>
</svg>
