<svg width="48" height="56" viewBox="0 0 48 56" fill="none" xmlns="http://www.w3.org/2000/svg" style="background:#000">
<path d="M38.7037 10.9887C39.5574 11.4795 39.8477 12.5623 39.3524 13.4075C38.8562 14.2522 37.7624 14.5391 36.9091 14.0492C36.0554 13.5575 35.7647 12.4751 36.2614 11.6304C36.7567 10.7857 37.85 10.4974 38.7037 10.9887ZM0 0H26.2226C32.7276 0 37.6435 1.65332 40.9841 4.95995C43.5566 7.51986 44.8488 10.6934 44.8488 14.48V14.6403C44.8488 16.2402 44.6471 17.6535 44.2427 18.8803C43.8389 20.1065 43.3137 21.2133 42.6404 22.2005C41.9893 23.1549 41.2493 23.9968 40.3974 24.7266C40.2502 24.4318 40.0177 24.1754 39.7108 23.9987L36.5119 22.1597C35.116 21.3577 35.5061 20.6236 36.4678 18.9848L37.3452 17.4885C39.2369 17.6596 41.1475 16.7591 42.1645 15.0247C43.5623 12.6415 42.7451 9.58803 40.3368 8.20425C37.93 6.82046 34.8447 7.63001 33.4473 10.0127C32.4298 11.7471 32.5865 13.8359 33.6746 15.3782L32.7963 16.8744C31.8346 18.5132 31.3848 19.2121 29.9884 18.4096L26.7904 16.5702C25.9589 16.0921 24.8821 16.3747 24.3987 17.1974C23.9157 18.022 24.2027 19.0879 25.0337 19.5656L27.4949 20.9812C28.7398 21.697 29.5348 22.4349 28.5944 24.0385L22.7793 32.4828C17.9718 39.4635 9.39999 35.4275 8.1793 29.2764C8.89098 29.9233 10.0941 30.4568 10.9701 30.5285C8.78254 28.0647 7.72142 25.0665 7.6968 21.8419C-4.00442 31.9577 13.9523 40.4437 14.1227 52.8898C25.1269 46.8685 41.4713 58.1043 44.5477 43.0299C41.7062 44.6058 38.5503 45.1787 35.3035 44.5205C35.8011 45.2377 36.8656 46.006 37.7851 46.299C31.7849 48.2978 23.9957 42.9263 27.7378 35.3333L32.2645 26.1493C33.2049 24.5443 34.2471 24.8621 35.4919 25.5784C38.7444 27.4478 42.8085 29.0449 45.1855 31.7201C47.0577 33.8267 48 36.7466 48 40.4803V40.6397C48 43.2 47.5014 45.4398 46.5051 47.3598C45.5084 49.2798 44.0808 50.8797 42.2356 52.1599C40.3771 53.4401 38.1417 54.3996 35.5421 55.0395C32.9293 55.6794 30.0339 56 26.869 56H0V0Z" fill="#FCFC05"/>
</svg>
